<?xml version="1.0" encoding="UTF-8" standalone="no"?>
<!-- Created with Inkscape (http://www.inkscape.org/) -->

<svg
   width="113.36082mm"
   height="101.53057mm"
   viewBox="0 0 113.36082 101.53057"
   version="1.1"
   id="svg1"
   xml:space="preserve"
   inkscape:version="1.3 (0e150ed6c4, 2023-07-21)"
   sodipodi:docname="icon.svg"
   xmlns:inkscape="http://www.inkscape.org/namespaces/inkscape"
   xmlns:sodipodi="http://sodipodi.sourceforge.net/DTD/sodipodi-0.dtd"
   xmlns="http://www.w3.org/2000/svg"
   xmlns:svg="http://www.w3.org/2000/svg"
   xmlns:rdf="http://www.w3.org/1999/02/22-rdf-syntax-ns#"
   xmlns:cc="http://creativecommons.org/ns#"
   xmlns:dc="http://purl.org/dc/elements/1.1/"><title
     id="title1">SenPAQ Tally</title><sodipodi:namedview
     id="namedview1"
     pagecolor="#ffffff"
     bordercolor="#666666"
     borderopacity="1.0"
     inkscape:showpageshadow="2"
     inkscape:pageopacity="0.0"
     inkscape:pagecheckerboard="0"
     inkscape:deskcolor="#d1d1d1"
     inkscape:document-units="mm"
     inkscape:zoom="1.0469406"
     inkscape:cx="257.89428"
     inkscape:cy="146.61767"
     inkscape:window-width="1920"
     inkscape:window-height="1027"
     inkscape:window-x="-8"
     inkscape:window-y="-8"
     inkscape:window-maximized="1"
     inkscape:current-layer="layer1" /><defs
     id="defs1" /><g
     inkscape:label="Layer 1"
     inkscape:groupmode="layer"
     id="layer1"
     transform="translate(-46.127399,-85.031515)"><path
       style="fill:#ffffff"
       d="m 66.995847,186.17752 c -1.304248,-0.46495 -2.48295,-1.57276 -3.106576,-2.91973 l -0.489992,-1.05833 -0.0058,-4.16719 c -0.0032,-2.29195 -0.09511,-4.16543 -0.204248,-4.16328 -0.109141,0.002 -2.008314,1.41404 -4.220385,3.13753 -6.161892,4.80094 -8.946563,5.14604 -11.554183,1.4319 -2.690617,-3.83236 -1.722285,-5.36662 8.326579,-13.19292 l 7.646426,-5.95523 0.0058,-34.97978 0.0058,-34.979782 0.481821,-1.0606 c 1.961656,-4.31807 8.163958,-4.31807 10.125608,0 l 0.48183,1.0606 0.006,30.521542 0.006,30.52153 0.36624,-0.14054 c 0.20143,-0.0773 2.76128,-2.00509 5.68854,-4.28399 l 5.3223,-4.14345 V 115.86354 89.921268 l 0.32539,-1.08903 c 1.36556,-4.57025 8.03981,-5.11066 10.24345,-0.8294 l 0.67595,1.31323 0.13229,21.767502 0.13229,21.7675 5.423963,-4.21662 5.42396,-4.21661 0.13229,-17.55099 0.13229,-17.551002 0.67595,-1.31312 c 2.04338,-3.96956 7.95429,-3.93266 9.93903,0.062 l 0.49752,1.00136 0.13229,13.148772 0.1323,13.14878 5.62239,-4.37215 5.62239,-4.37214 0.006,-8.644342 0.006,-8.64434 0.48183,-1.0606 c 1.96165,-4.31807 8.16395,-4.31807 10.12561,0 l 0.48182,1.0606 0.006,4.16719 c 0.003,2.29195 0.0951,4.16713 0.20425,4.16706 0.10914,-6e-5 1.94808,-1.36285 4.08652,-3.0284 6.34,-4.93798 9.05393,-5.29668 11.68805,-1.54481 2.69893,3.84421 1.6864,5.43992 -8.45172,13.319622 l -7.52129,5.8458 -0.006,34.97114 -0.006,34.97115 -0.48182,1.0606 c -0.8662,1.90672 -3.00559,3.30207 -5.06281,3.30207 -2.05721,0 -4.1966,-1.39535 -5.0628,-3.30207 l -0.48183,-1.0606 -0.006,-30.51528 c -0.004,-21.65757 -0.0884,-30.48773 -0.29046,-30.42039 -0.15655,0.0522 -2.7164,1.98204 -5.68854,4.28857 l -5.40389,4.19368 v 25.93143 25.93143 l -0.32539,1.08903 c -1.36556,4.57025 -8.0398,5.11066 -10.24345,0.82941 l -0.67595,-1.31324 -0.13229,-21.7533 -0.13229,-21.75331 -5.4901,4.26422 -5.490113,4.26422 -0.002,16.9526 c -9.8e-4,11.27666 -0.0969,17.30694 -0.28651,18.01093 -1.36138,5.05484 -8.1675,5.87862 -10.45928,1.26595 l -0.49752,-1.00137 -0.13229,-13.13269 -0.1323,-13.1327 -5.62239,4.37093 -5.6224,4.37093 -0.006,8.62947 -0.006,8.62948 -0.48182,1.0606 c -1.20455,2.65149 -4.22783,3.90958 -7.01086,2.91746 z"
       id="path1" /></g><metadata
     id="metadata1"><rdf:RDF><cc:Work
         rdf:about=""><dc:title>SenPAQ Tally</dc:title></cc:Work></rdf:RDF></metadata></svg>
